<svg xmlns="http://www.w3.org/2000/svg" xmlns:xlink="http://www.w3.org/1999/xlink" width="500" zoomAndPan="magnify" viewBox="0 0 375 374.999991" height="500" preserveAspectRatio="xMidYMid meet" version="1.0"><defs><clipPath id="9c2d3c51e5"><path d="M 91 93 L 136 93 L 136 300.75 L 91 300.75 Z M 91 93 " clip-rule="nonzero"/></clipPath><clipPath id="3ec749053c"><path d="M 144 137 L 190 137 L 190 300.75 L 144 300.75 Z M 144 137 " clip-rule="nonzero"/></clipPath><clipPath id="3b7b755a5b"><path d="M 37.5 143 L 83 143 L 83 300.75 L 37.5 300.75 Z M 37.5 143 " clip-rule="nonzero"/></clipPath><clipPath id="282d77c314"><path d="M 198 193 L 243 193 L 243 300.75 L 198 300.75 Z M 198 193 " clip-rule="nonzero"/></clipPath><clipPath id="ef00749619"><path d="M 251 166 L 297 166 L 297 300.75 L 251 300.75 Z M 251 166 " clip-rule="nonzero"/></clipPath><clipPath id="3e6b7db849"><path d="M 54 37.5 L 357 37.5 L 357 275 L 54 275 Z M 54 37.5 " clip-rule="nonzero"/></clipPath></defs><g clip-path="url(#9c2d3c51e5)"><path fill="#ffffff" d="M 97.472656 99.605469 C 97.34375 99.605469 97.226562 99.722656 97.226562 99.847656 L 97.226562 294.761719 C 97.226562 294.890625 97.34375 295.007812 97.472656 295.007812 L 129.308594 295.007812 C 129.4375 295.007812 129.554688 294.890625 129.554688 294.761719 L 129.554688 99.847656 C 129.554688 99.722656 129.4375 99.605469 129.308594 99.605469 Z M 129.308594 301.066406 L 97.472656 301.066406 C 94 301.066406 91.167969 298.234375 91.167969 294.761719 L 91.167969 99.847656 C 91.167969 96.375 94 93.550781 97.472656 93.550781 L 129.308594 93.550781 C 132.78125 93.550781 135.613281 96.375 135.613281 99.847656 L 135.613281 294.761719 C 135.613281 298.234375 132.78125 301.066406 129.308594 301.066406 " fill-opacity="1" fill-rule="nonzero"/></g><g clip-path="url(#3ec749053c)"><path fill="#ffffff" d="M 150.800781 295.007812 L 183.121094 295.007812 L 183.121094 143.925781 L 150.800781 143.925781 Z M 183.527344 301.066406 L 150.394531 301.066406 C 147.28125 301.066406 144.742188 298.527344 144.742188 295.414062 L 144.742188 143.519531 C 144.742188 140.40625 147.28125 137.867188 150.394531 137.867188 L 183.527344 137.867188 C 186.640625 137.867188 189.175781 140.40625 189.175781 143.519531 L 189.175781 295.414062 C 189.175781 298.527344 186.640625 301.066406 183.527344 301.066406 " fill-opacity="1" fill-rule="nonzero"/></g><g clip-path="url(#3b7b755a5b)"><path fill="#ffffff" d="M 43.652344 295.007812 L 75.976562 295.007812 L 75.976562 149.660156 L 43.652344 149.660156 Z M 76.382812 301.066406 L 43.246094 301.066406 C 40.128906 301.066406 37.597656 298.527344 37.597656 295.414062 L 37.597656 149.253906 C 37.597656 146.140625 40.128906 143.601562 43.246094 143.601562 L 76.382812 143.601562 C 79.496094 143.601562 82.035156 146.140625 82.035156 149.253906 L 82.035156 295.414062 C 82.035156 298.527344 79.496094 301.066406 76.382812 301.066406 " fill-opacity="1" fill-rule="nonzero"/></g><g clip-path="url(#282d77c314)"><path fill="#ffffff" d="M 204.34375 295.007812 L 236.675781 295.007812 L 236.675781 199.164062 L 204.34375 199.164062 Z M 237.375 301.066406 L 203.644531 301.066406 C 200.6875 301.066406 198.289062 298.660156 198.289062 295.714844 L 198.289062 198.464844 C 198.289062 195.511719 200.6875 193.109375 203.644531 193.109375 L 237.375 193.109375 C 240.332031 193.109375 242.730469 195.511719 242.730469 198.464844 L 242.730469 295.714844 C 242.730469 298.660156 240.332031 301.066406 237.375 301.066406 " fill-opacity="1" fill-rule="nonzero"/></g><g clip-path="url(#ef00749619)"><path fill="#ffffff" d="M 290.675781 301.066406 L 257.546875 301.066406 C 254.425781 301.066406 251.894531 298.527344 251.894531 295.414062 L 251.894531 169.101562 C 251.894531 167.429688 253.25 166.074219 254.925781 166.074219 C 256.59375 166.074219 257.953125 167.429688 257.953125 169.101562 L 257.953125 295.007812 L 290.269531 295.007812 L 290.269531 193.515625 C 290.269531 191.84375 291.625 190.488281 293.296875 190.488281 C 294.972656 190.488281 296.324219 191.84375 296.324219 193.515625 L 296.324219 295.414062 C 296.324219 298.527344 293.792969 301.066406 290.675781 301.066406 " fill-opacity="1" fill-rule="nonzero"/></g><path fill="#ffffff" d="M 273.824219 155.371094 C 261.703125 155.371094 250.804688 148.648438 245.375 137.832031 C 237.507812 122.152344 243.855469 102.992188 259.53125 95.128906 C 264.007812 92.882812 268.800781 91.742188 273.773438 91.742188 C 285.894531 91.742188 296.800781 98.464844 302.230469 109.285156 C 310.097656 124.960938 303.742188 144.109375 288.074219 151.980469 C 283.589844 154.230469 278.796875 155.371094 273.824219 155.371094 Z M 307.644531 106.570312 C 301.171875 93.6875 288.195312 85.6875 273.773438 85.6875 C 267.851562 85.6875 262.144531 87.039062 256.816406 89.710938 C 238.15625 99.082031 230.59375 121.882812 239.964844 140.542969 C 246.425781 153.425781 259.40625 161.425781 273.824219 161.425781 C 279.75 161.425781 285.457031 160.066406 290.789062 157.394531 C 309.445312 148.027344 317.003906 125.230469 307.644531 106.570312 " fill-opacity="1" fill-rule="nonzero"/><g clip-path="url(#3e6b7db849)"><path fill="#ffffff" d="M 348.496094 265.503906 L 342.578125 268.472656 C 342.042969 268.746094 341.472656 268.875 340.875 268.875 C 339.421875 268.875 338.070312 268.054688 337.425781 266.765625 L 303.285156 198.757812 C 302.335938 196.859375 303.105469 194.550781 304.992188 193.605469 L 310.914062 190.628906 C 311.449219 190.363281 312.023438 190.226562 312.617188 190.226562 C 314.070312 190.226562 315.429688 191.054688 316.074219 192.335938 L 350.210938 260.351562 C 351.160156 262.242188 350.394531 264.558594 348.496094 265.503906 Z M 293.636719 187.769531 L 293.390625 187.285156 C 292.4375 185.390625 293.210938 183.078125 295.097656 182.132812 L 307.636719 175.839844 C 308.167969 175.570312 308.738281 175.4375 309.335938 175.4375 C 310.792969 175.4375 312.144531 176.265625 312.789062 177.546875 L 313.035156 178.035156 C 313.488281 178.941406 313.566406 179.984375 313.242188 180.960938 C 312.917969 181.941406 312.234375 182.726562 311.328125 183.1875 L 298.789062 189.480469 C 298.257812 189.742188 297.683594 189.882812 297.085938 189.882812 C 295.636719 189.882812 294.28125 189.054688 293.636719 187.769531 Z M 297.082031 169.941406 C 297.171875 169.894531 297.261719 169.84375 297.347656 169.800781 L 299.433594 168.75 L 301.011719 171.90625 L 295.902344 174.472656 L 294.324219 171.320312 L 296.855469 170.046875 C 296.929688 170.007812 297.011719 169.980469 297.082031 169.941406 Z M 232.832031 144.117188 C 221.496094 121.527344 230.648438 93.917969 253.234375 82.582031 C 259.6875 79.34375 266.589844 77.699219 273.753906 77.699219 C 291.222656 77.699219 306.941406 87.390625 314.773438 102.992188 C 320.265625 113.933594 321.167969 126.363281 317.3125 137.988281 C 313.5 149.492188 305.464844 158.839844 294.691406 164.355469 L 294.085938 164.65625 C 287.71875 167.804688 280.910156 169.40625 273.84375 169.40625 C 256.375 169.40625 240.660156 159.71875 232.832031 144.117188 Z M 355.617188 257.636719 L 321.484375 189.621094 C 320.605469 187.871094 319.257812 186.472656 317.640625 185.527344 C 318.210938 184.726562 318.671875 183.828125 318.988281 182.863281 C 319.824219 180.351562 319.625 177.667969 318.449219 175.324219 L 318.203125 174.832031 C 316.511719 171.464844 313.117188 169.378906 309.335938 169.378906 C 308.449219 169.378906 307.566406 169.515625 306.710938 169.753906 L 304.519531 165.386719 C 313.160156 159.066406 319.621094 150.261719 323.0625 139.894531 C 327.421875 126.734375 326.402344 112.664062 320.179688 100.277344 C 311.316406 82.613281 293.53125 71.644531 273.753906 71.644531 C 265.640625 71.644531 257.820312 73.503906 250.519531 77.167969 C 224.945312 90 214.582031 121.257812 227.421875 146.835938 C 228.0625 148.121094 228.769531 149.359375 229.507812 150.574219 L 219.097656 169.042969 L 198.089844 117.765625 C 197.625 116.628906 196.519531 115.886719 195.289062 115.886719 L 170.046875 115.886719 L 115.949219 38.792969 C 115.421875 38.039062 114.585938 37.566406 113.667969 37.511719 C 112.746094 37.449219 111.863281 37.808594 111.242188 38.480469 L 55.550781 98.984375 C 54.417969 100.214844 54.496094 102.132812 55.726562 103.261719 C 56.960938 104.394531 58.875 104.316406 60.007812 103.082031 L 113.152344 45.34375 L 165.996094 120.652344 C 166.566406 121.460938 167.488281 121.941406 168.476562 121.941406 L 193.253906 121.941406 L 215.863281 177.125 C 216.304688 178.203125 217.320312 178.925781 218.476562 179 C 218.539062 179.007812 218.601562 179.007812 218.667969 179.007812 C 219.75 179.007812 220.761719 178.421875 221.300781 177.464844 L 233.347656 156.09375 C 243.070312 168.246094 257.804688 175.464844 273.84375 175.464844 C 278.878906 175.464844 283.800781 174.746094 288.550781 173.324219 L 290.765625 177.746094 C 287.101562 180.578125 285.824219 185.707031 287.976562 190 L 288.222656 190.488281 C 289.878906 193.792969 293.191406 195.851562 296.894531 195.925781 C 296.683594 197.769531 296.980469 199.6875 297.871094 201.472656 L 332.011719 269.480469 C 333.703125 272.847656 337.09375 274.933594 340.875 274.933594 C 342.402344 274.933594 343.929688 274.574219 345.292969 273.890625 L 351.21875 270.914062 C 356.089844 268.464844 358.070312 262.507812 355.617188 257.636719 " fill-opacity="1" fill-rule="nonzero"/></g></svg>